<?xml version="1.0" encoding="UTF-8"?>
<svg width="128px" height="116px" viewBox="0 0 128 116" version="1.1" xmlns="http://www.w3.org/2000/svg" xmlns:xlink="http://www.w3.org/1999/xlink">
    <!-- Generator: Sketch 51.2 (57519) - http://www.bohemiancoding.com/sketch -->
    <title>Mobile</title>
    <desc>Created with Sketch.</desc>
    <defs>
        <rect id="path-1" x="0" y="0" width="110.819672" height="108.915254"></rect>
        <rect id="path-3" x="0" y="0" width="110.819672" height="108.915254"></rect>
    </defs>
    <g id="Page-1" stroke="none" stroke-width="1" fill="none" fill-rule="evenodd">
        <g id="iPhone-8.1" transform="translate(-124.000000, -149.000000)">
            <g id="icon" transform="translate(42.000000, 54.000000)">
                <g id="Mobile" transform="translate(81.000000, 85.000000)">
                    <g id="Layer_2">
                        <g id="Group" transform="translate(12.786885, 0.000000)">
                            <g id="Clipped">
                                <mask id="mask-2" fill="white">
                                    <use xlink:href="#path-1"></use>
                                </mask>
                                <g id="SVGID_1_"></g>
                                <path d="M98.0327869,147.538248 C98.0327869,150.975912 95.2517885,153.762712 91.8212803,153.762712 L27.522982,153.762712 C24.0924525,153.762712 21.3114754,150.975912 21.3114754,147.538248 L21.3114754,36.1227692 C21.3114754,32.6850834 24.0924525,29.8983051 27.522982,29.8983051 L91.8212803,29.8983051 C95.2517885,29.8983051 98.0327869,32.6850834 98.0327869,36.1227692 L98.0327869,147.538248 Z" id="Shape" fill="#893EF7" fill-rule="nonzero" mask="url(#mask-2)"></path>
                            </g>
                            <g id="Clipped">
                                <mask id="mask-4" fill="white">
                                    <use xlink:href="#path-3"></use>
                                </mask>
                                <g id="SVGID_1_"></g>
                                <g id="Group" mask="url(#mask-4)" fill-rule="nonzero">
                                    <g transform="translate(12.786885, 32.033898)">
                                        <rect id="Rectangle-path" fill="#FFFFFF" x="3.88742623" y="2.91224441" width="58.5047311" height="113.936931"></rect>
                                        <path d="M62.0808607,119.640994 L3.88742623,119.640994 C2.3489082,119.640994 1.10148361,118.390967 1.10148361,116.849239 L1.10148361,2.91224441 C1.10148361,1.37051695 2.3489082,0.120511525 3.88742623,0.120511525 L62.0808607,0.120511525 C63.6193787,0.120511525 64.8668033,1.37051695 64.8668033,2.91224441 L64.8668033,116.849239 C64.8668033,118.390967 63.6193787,119.640994 62.0808607,119.640994 Z M6.67336885,114.057506 L59.294918,114.057506 L59.294918,5.70402 L6.67336885,5.70402 L6.67336885,114.057506 Z" id="Shape" fill="#222051"></path>
                                    </g>
                                </g>
                            </g>
                            <g id="Clipped" fill="#222051" fill-rule="nonzero">
                                <path d="M87.3770492,129.797597 C87.3770492,134.776989 83.348882,138.813559 78.3798557,138.813559 L13.2594459,138.813559 C8.2904623,138.813559 4.26227377,134.776989 4.26227377,129.797597 L4.26227377,19.6938854 C4.26227377,14.7145363 8.29044098,10.6779447 13.2594459,10.6779447 L78.3798557,10.6779447 C83.348882,10.6779447 87.3770492,14.7145149 87.3770492,19.6938854 L87.3770492,129.797597 Z M80.9836066,20.517178 C80.9836066,18.6214973 79.4500541,17.0847458 77.5583197,17.0847458 L14.0810459,17.0847458 C12.1892902,17.0847458 10.6557377,18.6214973 10.6557377,20.517178 L10.6557377,128.974326 C10.6557377,130.870007 12.1892902,132.406758 14.0810246,132.406758 L77.5582984,132.406758 C79.4500328,132.406758 80.9835852,130.870007 80.9835852,128.974326 L80.9835852,20.517178 L80.9836066,20.517178 Z" id="Shape"></path>
                            </g>
                        </g>
                        <path d="M64.2854475,27.7627119 L53.141677,27.7627119 C51.603159,27.7627119 50.3557344,26.1010495 50.3557344,24.559322 C50.3557344,23.0175946 51.603159,21.3559322 53.141677,21.3559322 L64.2854475,21.3559322 C65.8239656,21.3559322 67.0713689,23.0175946 67.0713689,24.559322 C67.0713689,26.1010495 65.8239656,27.7627119 64.2854475,27.7627119 Z" id="Shape" fill="#222051" fill-rule="nonzero"></path>
                        <path d="M111.64643,115.322034 L4.38773443,115.322034 C2.84921639,115.322034 1.6017918,113.660372 1.6017918,112.118644 C1.6017918,110.576917 2.84921639,108.915254 4.38773443,108.915254 L111.64643,108.915254 C113.184948,108.915254 114.432372,110.576917 114.432372,112.118644 C114.432372,113.660372 113.184948,115.322034 111.64643,115.322034 Z" id="Shape" fill="#222051" fill-rule="nonzero"></path>
                        <g id="Group" transform="translate(40.491803, 42.711864)" fill="#893EF7" fill-rule="nonzero">
                            <g transform="translate(10.655738, 0.000000)" id="Shape">
                                <path d="M9.45347213,12.9018447 C8.29924262,12.9018447 7.36400984,11.964661 7.36400984,10.8080237 L7.36400984,4.21373898 C7.36400984,3.05710169 8.29924262,2.11991797 9.45347213,2.11991797 C10.6077016,2.11991797 11.5429344,3.05710169 11.5429344,4.21373898 L11.5429344,10.8080237 C11.5429344,11.9646397 10.6077016,12.9018447 9.45347213,12.9018447 Z"></path>
                                <path d="M9.45347213,6.18076983 L2.36687377,6.18076983 C1.21264426,6.18076983 0.277411475,5.24360746 0.277411475,4.08699153 C0.277411475,2.93033288 1.21264426,1.99317051 2.36687377,1.99317051 L9.45347213,1.99317051 C10.6077016,1.99317051 11.5429344,2.93033288 11.5429344,4.08699153 C11.5429344,5.24360746 10.6077016,6.18076983 9.45347213,6.18076983 Z"></path>
                            </g>
                            <path d="M5.80814426,38.440678 C4.69268033,38.440678 3.76697377,37.7542983 3.72140984,36.6276661 C3.20584262,23.7049139 8.53149508,11.6671729 18.7175918,2.55374237 C19.578682,1.78153322 20.9002066,1.90708475 21.667441,2.76999254 C22.436018,3.63285763 22.3618754,4.98043831 21.5008066,5.75061864 C12.2635393,14.0161332 7.43235574,24.7994908 7.89758525,36.4483617 C7.94317049,37.6043156 7.04602131,38.440678 5.89315574,38.440678 C5.86459836,38.440678 5.83601967,38.440678 5.80814426,38.440678 Z" id="Shape"></path>
                            <path d="M5.8095082,45.4288729 C2.84331311,45.4288729 0.430108197,43.0106339 0.430108197,40.0375892 C0.430108197,37.0652064 2.84331311,34.6469461 5.8095082,34.6469461 C8.77636393,34.6469461 11.1895689,37.0651851 11.1895689,40.0375892 C11.1895689,43.0106125 8.77636393,45.4288729 5.8095082,45.4288729 Z M5.8095082,38.8345881 C5.14770164,38.8345881 4.60901148,39.3744234 4.60901148,40.0375892 C4.60901148,40.7014383 5.14770164,41.2412736 5.8095082,41.2412736 C6.47197541,41.2412736 7.01066557,40.7014383 7.01066557,40.0375892 C7.01066557,39.3744234 6.47197541,38.8345881 5.8095082,38.8345881 Z" id="Shape"></path>
                            <g transform="translate(19.180328, 21.355932)" id="Shape">
                                <path d="M9.88592459,13.8117569 C9.35132623,13.8117569 8.81670656,13.6072739 8.4085918,13.1983505 L0.839096721,5.61236034 C0.0229098361,4.79447085 0.0229098361,3.46878 0.839096721,2.6515739 C1.65528361,1.83368441 2.97753279,1.83368441 3.79371967,2.6515739 L11.3632148,10.2375641 C12.1794443,11.0554536 12.1794443,12.3811444 11.3632148,13.1983505 C10.9551426,13.6072739 10.420523,13.8117569 9.88592459,13.8117569 Z"></path>
                                <path d="M2.3164082,13.8117569 C1.78180984,13.8117569 1.24719016,13.6072739 0.839096721,13.1983505 C0.0229098361,12.3811444 0.0229098361,11.0554536 0.839096721,10.2375641 L8.4085918,2.6515739 C9.22343607,1.83368441 10.5470279,1.83368441 11.3632148,2.6515739 C12.1794443,3.46878 12.1794443,4.79447085 11.3632148,5.61236034 L3.79371967,13.1983505 C3.3863082,13.6072739 2.85100656,13.8117569 2.3164082,13.8117569 Z"></path>
                            </g>
                            <path d="M25.2505607,50.1126986 C24.3520689,50.1126986 23.5222639,49.5272258 23.2502016,48.6207305 C23.1066902,48.143639 22.9747295,47.6603756 22.855023,47.1750834 C22.5775262,46.0525088 23.2610918,44.9169925 24.3813082,44.6396217 C25.5028885,44.3622081 26.634677,45.0471783 26.9115131,46.1690695 C27.0148951,46.587539 27.1291672,47.004001 27.2522836,47.415658 C27.5842098,48.5225573 26.957759,49.6907908 25.8525246,50.0233881 C25.6525377,50.0840603 25.449823,50.1126986 25.2505607,50.1126986 Z M24.4071377,41.8492342 C24.290159,41.8492342 24.1717951,41.8396881 24.0527705,41.8192292 C22.9148656,41.6242922 22.150359,40.5426569 22.3448689,39.4030403 C22.4428164,38.8291637 22.5781656,38.2736532 22.7475279,37.7522695 C23.1053049,36.6528661 24.2880918,36.0530847 25.3811148,36.4095366 C26.4782295,36.7673766 27.0781475,37.9492139 26.7210525,39.0486173 C26.6142607,39.3771142 26.5278852,39.7335875 26.4639295,40.1077861 C26.2898361,41.1287705 25.4063049,41.8492342 24.4071377,41.8492342 Z" id="Shape"></path>
                            <path d="M28.0970279,62.1793769 C25.1308328,62.1793769 22.7176066,59.7611593 22.7176066,56.7880932 C22.7176066,53.8157105 25.1308115,51.3974929 28.0970279,51.3974929 C31.0638836,51.3974929 33.4770885,53.8157105 33.4770885,56.7880932 C33.4770885,59.7611593 31.0638836,62.1793769 28.0970279,62.1793769 Z M28.0970279,55.5850922 C27.4352,55.5850922 26.8965311,56.1249275 26.8965311,56.7880932 C26.8965311,57.4519424 27.4352,57.9917776 28.0970279,57.9917776 C28.7594951,57.9917776 29.2981639,57.4519424 29.2981639,56.7880932 C29.2981639,56.1249275 28.7594951,55.5850922 28.0970279,55.5850922 Z" id="Shape"></path>
                        </g>
                        <path d="M49.9184016,125.321415 L4.38773443,125.321415 C2.84921639,125.321415 1.6017918,124.071388 1.6017918,122.529661 C1.6017918,120.987934 2.84921639,119.737907 4.38773443,119.737907 L49.9184016,119.737907 C51.4569197,119.737907 52.7043443,120.987934 52.7043443,122.529661 C52.7043443,124.071388 51.4569197,125.321415 49.9184016,125.321415 Z" id="Shape" fill="#222051" fill-rule="nonzero"></path>
                        <path d="M125.992782,114.910398 L123.085087,114.910398 C121.546569,114.910398 120.299144,113.660372 120.299144,112.118644 C120.299144,110.576917 121.546569,109.32689 123.085087,109.32689 L125.992782,109.32689 C127.5313,109.32689 128.778725,110.576917 128.778725,112.118644 C128.778725,113.660372 127.5313,114.910398 125.992782,114.910398 Z" id="Shape" fill="#222051" fill-rule="nonzero"></path>
                    </g>
                </g>
            </g>
        </g>
    </g>
</svg>