<?xml version="1.0" encoding="UTF-8"?>
<svg width="130px" height="117px" viewBox="0 0 130 117" version="1.1" xmlns="http://www.w3.org/2000/svg" xmlns:xlink="http://www.w3.org/1999/xlink">
    <!-- Generator: Sketch 51.2 (57519) - http://www.bohemiancoding.com/sketch -->
    <title>Money</title>
    <desc>Created with Sketch.</desc>
    <defs></defs>
    <g id="Page-1" stroke="none" stroke-width="1" fill="none" fill-rule="evenodd">
        <g id="iPhone-8.4" transform="translate(-124.000000, -142.000000)" fill-rule="nonzero">
            <g id="icon" transform="translate(42.000000, 54.000000)">
                <g id="Money" transform="translate(82.000000, 87.000000)">
                    <g id="Layer_6">
                        <circle id="Oval" fill="#893EF7" cx="100.439975" cy="43.5334" r="29.554225"></circle>
                        <path d="M89.679325,64.436375 C72.220075,64.436375 58.0154,50.2317 58.0154,32.77245 C58.0154,15.313225 72.220075,1.108525 89.679325,1.108525 C107.13855,1.108525 121.34325,15.313225 121.34325,32.77245 C121.343275,50.2317 107.13855,64.436375 89.679325,64.436375 Z M89.679325,7.644775 C75.824125,7.644775 64.55165,18.91725 64.55165,32.77245 C64.55165,46.62765 75.824125,57.900125 89.679325,57.900125 C103.534525,57.900125 114.807,46.62765 114.807,32.77245 C114.807,18.91725 103.53455,7.644775 89.679325,7.644775 Z" id="Shape" fill="#222051"></path>
                        <circle id="Oval" fill="#FFFFFF" cx="89.6793" cy="32.772725" r="19.063725"></circle>
                        <g id="Group" transform="translate(80.000000, 17.500000)" fill="#893EF7">
                            <path d="M9.679325,29.2609 C8.3253,29.2609 7.228225,28.163825 7.228225,26.8098 L7.228225,23.415625 C7.228225,22.0616 8.3253,20.964525 9.679325,20.964525 C11.033325,20.964525 12.130425,22.0616 12.130425,23.415625 L12.130425,26.8098 C12.130425,28.163825 11.033325,29.2609 9.679325,29.2609 Z" id="Shape"></path>
                            <path d="M9.679325,8.008525 C8.3253,8.008525 7.228225,6.911425 7.228225,5.557425 L7.228225,2.586925 C7.228225,1.2329 8.3253,0.135825 9.679325,0.135825 C11.033325,0.135825 12.130425,1.2329 12.130425,2.586925 L12.130425,5.557425 C12.130425,6.911425 11.033325,8.008525 9.679325,8.008525 Z" id="Shape"></path>
                            <path d="M9.679325,25.8667 C6.83725,25.8667 1.5473,25.8667 1.5473,20.5616 C1.5473,19.2076 2.6444,18.1105 3.9984,18.1105 C5.3524,18.1105 6.4495,19.2076 6.4495,20.5616 C6.4495,20.633425 6.4527,20.690075 6.457475,20.73235 C7.035925,20.96455 8.737025,20.96455 9.679325,20.96455 C11.168975,20.96455 12.90915,20.2704 12.90915,18.313975 C12.90915,17.46025 10.68865,17.07885 9.636225,17.106775 C8.6716,17.106775 6.9833,17.098 5.38035,16.50435 C2.9444,15.60195 1.5473,13.616025 1.5473,11.054825 C1.5473,6.749475 5.043625,3.502875 9.679325,3.502875 L10.179575,3.5021 C12.609925,3.4949 14.889475,3.488525 16.47565,5.0699 C17.3621,5.95315 17.8113,7.142 17.8113,8.60135 C17.8113,9.95535 16.714225,11.0524 15.36025,11.0524 C14.006225,11.0524 12.90915,9.955325 12.90915,8.60135 C12.90915,8.579 12.90915,8.55905 12.90835,8.5399 C12.345825,8.397875 11.0724,8.397875 10.193975,8.40425 L9.679325,8.40505 C8.189675,8.40505 6.4495,9.0992 6.4495,11.054825 C6.4495,11.512825 6.50135,11.691525 7.083,11.90775 C7.8849,12.204575 9.0378,12.21255 9.642625,12.204575 C13.726975,12.204575 17.8113,14.09395 17.8113,18.313975 C17.811325,22.620125 14.315025,25.8667 9.679325,25.8667 Z" id="Shape"></path>
                        </g>
                        <circle id="Oval" fill="#893EF7" cx="50.5495" cy="92.36375" r="25.512575"></circle>
                        <g id="Group" transform="translate(10.000000, 50.000000)">
                            <g>
                                <circle id="Oval" fill="#FFFFFF" cx="29.148625" cy="30.9629" r="25.5126"></circle>
                                <path d="M29.1487,59.743275 C13.278825,59.743275 0.367525,46.832725 0.367525,30.962875 C0.367525,15.09305 13.27885,2.1825 29.1487,2.1825 C45.01855,2.1825 57.929075,15.09305 57.929075,30.962875 C57.929075,46.832725 45.01855,59.743275 29.1487,59.743275 Z M29.1487,8.71875 C16.882875,8.71875 6.903775,18.69705 6.903775,30.96285 C6.903775,43.22865 16.882875,53.207 29.1487,53.207 C41.414525,53.207 51.392825,43.228675 51.392825,30.96285 C51.392825,18.697025 41.414525,8.71875 29.1487,8.71875 Z" id="Shape" fill="#222051"></path>
                            </g>
                            <path d="M27.4758,43.04345 L27.471025,43.04345 C26.097875,43.04345 24.8468,42.532825 23.948375,41.60645 C23.294125,40.929025 22.93505,40.040975 22.93505,39.1027 L22.93505,29.066125 C22.93505,28.605775 22.93505,28.170925 25.34225,23.033375 C27.692025,18.017075 28.423675,16.844175 30.214125,16.844175 L32.91655,16.844175 C34.245025,16.844175 35.4626,17.572675 36.092125,18.745525 C36.527775,19.568175 36.869275,20.354075 37.146125,21.562075 C37.378325,22.555425 37.33445,23.48575 37.2698,24.183925 C37.265025,24.238175 37.25865,24.294025 37.25145,24.352275 L42.4297,24.35785 C44.416425,24.365025 46.02655,25.98235 46.02655,27.9619 L46.0106,33.92125 C46.005825,34.74785 45.788775,35.554525 45.38425,36.26305 L42.473575,41.246575 C41.835275,42.344525 40.64325,43.029875 39.365025,43.029875 L39.364225,43.029875 C36.23095,43.005925 31.102175,43.0291 28.106925,43.041025 L27.4758,43.04345 Z M27.83725,29.48105 L27.83725,38.13965 L28.086975,38.13885 C30.862825,38.128475 35.506475,38.10615 38.6198,38.1237 L41.1395,33.80955 L41.12755,29.258425 L31.15005,29.24805 L31.8897,26.2185 C32.068425,25.485275 32.341275,24.2286 32.38915,23.72835 C32.43385,23.243225 32.42825,22.915275 32.3708,22.66875 C32.28385,22.29055 32.197675,22.007325 32.094725,21.7464 L31.45005,21.7464 C30.4104,23.633375 28.3838,28.1007 27.83725,29.48105 Z" id="Shape" fill="#893EF7"></path>
                            <path d="M14.09935,40.037375 L14.09935,29.126375 C14.09935,27.321575 15.562675,25.85825 17.367475,25.85825 C19.172275,25.85825 20.6356,27.321575 20.6356,29.126375 L20.6356,40.037375 C20.6356,41.842175 19.172275,43.3055 17.367475,43.3055 C15.562675,43.3055 14.09935,41.8422 14.09935,40.037375 Z" id="Shape" fill="#893EF7"></path>
                        </g>
                        <path d="M3.403625,73.44845 C3.067725,73.44845 2.727,73.396575 2.3903,73.286475 C0.674075,72.727975 -0.26345,70.88325 0.29585,69.167025 C3.0334,60.7645 8.257125,53.536525 15.40135,48.264925 C16.8535,47.19415 18.89925,47.50215 19.971625,48.954275 C21.043175,50.406425 20.7344,52.453 19.28225,53.52455 C13.240675,57.9823 8.8236,64.091675 6.509775,71.192025 C6.06055,72.571575 4.779975,73.44845 3.403625,73.44845 Z" id="Shape" fill="#302C58"></path>
                    </g>
                </g>
            </g>
        </g>
    </g>
</svg>