<?xml version="1.0" encoding="UTF-8"?>
<svg width="142px" height="93px" viewBox="0 0 142 93" version="1.1" xmlns="http://www.w3.org/2000/svg" xmlns:xlink="http://www.w3.org/1999/xlink">
    <!-- Generator: Sketch 51.2 (57519) - http://www.bohemiancoding.com/sketch -->
    <title>Robot</title>
    <desc>Created with Sketch.</desc>
    <defs></defs>
    <g id="Page-1" stroke="none" stroke-width="1" fill="none" fill-rule="evenodd">
        <g id="iPhone-8.3" transform="translate(-117.000000, -155.000000)" fill-rule="nonzero">
            <g id="icon" transform="translate(42.000000, 54.000000)">
                <g id="Robot" transform="translate(74.000000, 100.000000)">
                    <g id="Layer_3">
                        <path d="M120.160817,29.0545455 C120.149263,29.0545455 120.137949,29.0545455 120.126446,29.0545455 C120.123463,29.0545455 120.120737,29.0545455 120.117874,29.0545455 L111.428571,29.0545455 L111.428571,23.9272727 L61.7142857,23.9272727 L61.7142857,29.0545455 L55.3168114,29.0545455 C55.3138629,29.0545455 55.3111029,29.0545455 55.3081543,29.0545455 C55.2966171,29.0545455 55.28532,29.0545455 55.2738171,29.0545455 C50.3385771,29.0545455 46.3376914,32.6796298 46.3376914,37.6 C46.3376914,42.5202847 50.3385771,46.1454545 55.2738171,46.1454545 C55.28532,46.1454545 55.2966343,46.1454545 55.3081543,46.1454545 C55.3111029,46.1454545 55.3138629,46.1454545 55.3168114,46.1454545 L61.7142857,46.1454545 L61.7142857,51.2727273 L111.428571,51.2727273 L111.428571,46.1454545 L120.117874,46.1454545 C120.120754,46.1454545 120.12348,46.1454545 120.126446,46.1454545 C120.137949,46.1454545 120.149263,46.1454545 120.160817,46.1454545 C125.09604,46.1454545 129.096891,42.5202847 129.096891,37.6 C129.096891,32.6796298 125.09604,29.0545455 120.160817,29.0545455 Z" id="Shape" fill="#893EF7"></path>
                        <g id="Group" transform="translate(92.571429, 20.509091)">
                            <g transform="translate(22.285714, 30.763636)" id="Shape">
                                <path d="M20.5055143,4.08650473 L4.39311429,25.3656949" fill="#FFFFFF"></path>
                                <path d="M4.39076571,28.1582811 C3.80316,28.1582811 3.21005143,27.9749982 2.70562286,27.5942811 C1.47024,26.665356 1.22513143,24.9138967 2.15741143,23.6827702 L18.2700686,2.40381927 C19.2012857,1.17327382 20.9597314,0.927250182 22.19292,1.857816 C23.4283029,2.78674109 23.6734114,4.53820036 22.7411314,5.76932691 L6.62847429,27.0482778 C6.07805143,27.7753593 5.23990286,28.1582811 4.39076571,28.1582811 Z" fill="#222051"></path>
                            </g>
                            <g transform="translate(12.000000, 0.000000)" id="Shape">
                                <path d="M30.4410686,32.20534 L4.24150286,4.45792436" fill="#FFFFFF"></path>
                                <path d="M30.4422343,35.5565596 C29.5471543,35.5565596 28.6553314,35.2030855 27.9933257,34.5021702 L1.79401714,6.75460073 C0.521434286,5.40730727 0.585994286,3.28601782 1.93736571,2.01727418 C3.29202857,0.749077455 5.41705714,0.812894909 6.68964,2.16073527 L32.8889486,29.9083218 C34.1615829,31.2556153 34.0970229,33.3769218 32.7456,34.6456484 C32.0956114,35.2543753 31.2684,35.5565596 30.4422343,35.5565596 Z" fill="#222051"></path>
                            </g>
                            <g transform="translate(5.142857, 42.727273)">
                                <path d="M3.19582286,20.4031102 C2.54914286,19.7583898 1.50068571,19.7583898 0.854005714,20.4031102 C0.207325714,21.0477964 0.207325714,22.0930935 0.854005714,22.7377967 L7.61922857,29.4825189 C8.26585714,30.1272393 9.31431429,30.1272393 9.96099429,29.4825189 C10.6076743,28.8377985 10.6076743,27.7925185 9.96099429,27.1477982 L3.19582286,20.4031102 Z" id="Shape" fill="#222051"></path>
                                <path d="M0.854005714,7.99401636 C0.207325714,8.63870255 0.207325714,9.68399964 0.854005714,10.3287029 C1.50068571,10.9734233 2.54914286,10.9734233 3.19582286,10.3287029 L9.96099429,3.58399782 C10.6076743,2.93927745 10.6076743,1.89399745 9.96099429,1.24927709 C9.31431429,0.604556727 8.26585714,0.604556727 7.61922857,1.24927709 L0.854005714,7.99401636 Z" id="Shape" fill="#222051"></path>
                                <path d="M16.7608971,14.0784313 C17.6611029,14.9759604 19.1207143,14.9759604 20.0209029,14.0784313 C20.92116,13.1809364 20.92116,11.7257651 20.0209029,10.8282702 L10.6030114,1.43888364 C9.70275429,0.541388727 8.24319429,0.541388727 7.34295429,1.43888364 C6.44274857,2.33641273 6.44274857,3.79154982 7.34295429,4.68906182 L16.7608971,14.0784313 Z" id="Shape" fill="#222051"></path>
                                <path d="M20.0209029,19.6259182 C20.92116,18.7283891 20.92116,17.273252 20.0209029,16.37574 C19.1206971,15.4782451 17.6610857,15.4782451 16.7608971,16.37574 L7.34295429,25.7651265 C6.44274857,26.6626215 6.44274857,28.1177927 7.34295429,29.0152876 C8.24321143,29.9128167 9.70277143,29.9128167 10.6030114,29.0152876 L20.0209029,19.6259182 Z" id="Shape" fill="#222051"></path>
                                <g transform="translate(12.000000, 6.836364)">
                                    <ellipse id="Oval" fill="#FFFFFF" cx="8.69609143" cy="8.86625091" rx="5.81718857" ry="5.79956073"></ellipse>
                                    <path d="M8.69652,16.3330811 C8.68553143,16.3330811 8.59911429,16.3322949 8.58812571,16.3322949 C6.58830857,16.3033258 4.71889714,15.4998651 3.32545714,14.0691338 C1.93045714,12.6392229 1.17951429,10.7527455 1.20781714,8.75818509 C1.26437143,4.70176036 4.62305143,1.39943782 8.69494286,1.39943782 C12.9318,1.45894836 16.2433886,4.85600582 16.1852571,8.97276145 C16.1255314,13.0315618 12.7668514,16.3330811 8.69652,16.3330811 Z M8.72278286,7.01716836 C7.68766286,7.01716836 6.85599429,7.83426764 6.84176571,8.83899091 C6.83412,9.33372145 7.02015429,9.801192 7.36592571,10.1551789 C7.71063429,10.5097469 8.17347429,10.7082749 8.66916,10.7153676 L8.69652,10.7159145 C9.70433143,10.7159145 10.5370457,9.89772145 10.5512743,8.89243418 C10.5655029,7.87354255 9.74592,7.03131964 8.72278286,7.01716836 Z" id="Shape" fill="#222051"></path>
                                </g>
                            </g>
                            <path d="M13.5592286,54.9773527 C13.5592286,53.2247142 12.1341429,51.8038956 10.3761771,51.8038956 L4.00997143,51.8038956 C2.25200571,51.8038956 0.82692,53.2247142 0.82692,54.9773527 L0.82692,61.3242498 C0.82692,63.0768884 2.25200571,64.4976898 4.00997143,64.4976898 L10.3761771,64.4976898 C12.1341429,64.4976898 13.5592286,63.0769055 13.5592286,61.3242498 L13.5592286,54.9773527 Z" id="Shape" fill="#893EF7"></path>
                            <ellipse id="Oval" fill="#FFFFFF" cx="42.4410686" cy="34.841664" rx="5.81718857" ry="5.79956073"></ellipse>
                            <path d="M42.4410686,42.3084429 C42.43008,42.3084429 42.3436629,42.3076567 42.3326743,42.3076567 C40.3328571,42.2786876 38.4633943,41.4752269 37.0699543,40.0445298 C35.6749543,38.6145847 34.9240629,36.7281415 34.9523143,34.7335811 C35.0088686,30.6771564 38.3676,27.3748338 42.4394914,27.3748338 C46.6763486,27.4343444 49.9878857,30.8314018 49.9297543,34.9481233 C49.87008,39.0069407 46.5114,42.3084429 42.4410686,42.3084429 Z M42.4673314,32.9925302 C41.43216,32.9925302 40.6005429,33.8096465 40.5863143,34.8143869 C40.5786686,35.3091175 40.7646514,35.776588 41.1104743,36.1305749 C41.4551314,36.4851087 41.9180229,36.6836709 42.4137086,36.6907636 L42.4410686,36.6913105 C43.4488286,36.6913105 44.2815429,35.8731175 44.2957714,34.8678302 C44.31,33.8489215 43.4904343,33.0067156 42.4673314,32.9925302 Z" id="Shape" fill="#222051"></path>
                        </g>
                        <g id="Group" transform="translate(0.000000, 22.218182)">
                            <g transform="translate(5.142857, 23.927273)" id="Shape">
                                <path d="M4.04088,2.80861745 L24.1437086,20.391608" fill="#FFFFFF"></path>
                                <path d="M24.1428686,23.18416 C23.48688,23.18416 22.8281486,22.9561502 22.2963257,22.4908844 L2.19301714,4.90794509 C1.03037143,3.89067709 0.9144,2.12610909 1.93476,0.966439636 C2.95568571,-0.193195636 4.72508571,-0.307756 5.88824571,0.708999273 L25.9915714,18.2919385 C27.1541829,19.3092065 27.2701886,21.0737745 26.2497943,22.2334098 C25.6961314,22.8623553 24.9214114,23.18416 24.1428686,23.18416 Z" fill="#222051"></path>
                            </g>
                            <g transform="translate(5.142857, 0.000000)" id="Shape">
                                <path d="M4.04088,26.7358902 L34.9311943,4.29164691" fill="#FFFFFF"></path>
                                <path d="M4.04336571,30.0870585 C3.00550286,30.0870585 1.98183429,29.6097949 1.3242,28.7097705 C0.230502857,27.2135811 0.560417143,25.1173811 2.06062286,24.0275622 L32.9509371,1.58348982 C34.45224,0.493106909 36.55536,0.822568364 37.6474114,2.317664 C38.7411086,3.81385345 38.4111943,5.91007055 36.9109886,6.99990655 L6.02067429,29.4439618 C5.42321143,29.8781393 4.73000571,30.0870585 4.04336571,30.0870585 Z" fill="#222051"></path>
                            </g>
                            <g transform="translate(20.571429, 29.054545)">
                                <path d="M26.21544,19.9648309 C26.86212,19.3201105 27.9105771,19.3201105 28.5572571,19.9648309 C29.2039371,20.6095513 29.2039371,21.6548313 28.5572571,22.2995175 L21.7920343,29.0442396 C21.1453543,29.68896 20.0968971,29.68896 19.4502514,29.0442396 C18.8035714,28.3995193 18.8035714,27.3542393 19.4502514,26.7095189 L26.21544,19.9648309 Z" id="Shape" fill="#222051"></path>
                                <path d="M28.5572571,7.55573709 C29.2039371,8.20042327 29.2039371,9.24572036 28.5572571,9.89042364 C27.9105771,10.535144 26.86212,10.535144 26.21544,9.89042364 L19.4502343,3.14571855 C18.8035543,2.50099818 18.8035543,1.45571818 19.4502343,0.810997818 C20.09688,0.166277455 21.1453543,0.166277455 21.7920171,0.810997818 L28.5572571,7.55573709 Z" id="Shape" fill="#222051"></path>
                                <path d="M12.6503657,13.640152 C11.7501429,14.5376811 10.2905486,14.5376811 9.39032571,13.640152 C8.49006857,12.7426571 8.49006857,11.2874858 9.39032571,10.3899909 L18.8082171,1.00060436 C19.7084743,0.103109455 21.1680343,0.103109455 22.0682743,1.00060436 C22.9684971,1.89813345 22.9684971,3.35327055 22.0682743,4.25078255 L12.6503657,13.640152 Z" id="Shape" fill="#222051"></path>
                                <path d="M9.39032571,19.1876389 C8.49006857,18.2901098 8.49006857,16.8349727 9.39032571,15.9374607 C10.2905486,15.0399658 11.7501429,15.0399658 12.6503657,15.9374607 L22.0682914,25.3268473 C22.9685143,26.2243764 22.9685143,27.6795135 22.0682914,28.5770255 C21.1680343,29.4745204 19.7084743,29.4745204 18.8082343,28.5770255 L9.39032571,19.1876389 Z" id="Shape" fill="#222051"></path>
                                <ellipse id="Oval" fill="#FFFFFF" cx="8.71513714" cy="15.2643353" rx="5.81718857" ry="5.79956073"></ellipse>
                                <path d="M8.71513714,22.7311484 C8.70413143,22.7311484 8.61773143,22.7303622 8.60674286,22.7303622 C6.60692571,22.7013931 4.73749714,21.8979324 3.34405714,20.4672011 C1.94905714,19.0372902 1.19813143,17.1508127 1.22641714,15.1562524 C1.28297143,11.0998276 4.64165143,7.79750509 8.71354286,7.79750509 C12.9504171,7.85701564 16.2619543,11.2540731 16.20384,15.3708287 C16.1441486,19.429612 12.7854686,22.7311484 8.71513714,22.7311484 Z M8.74138286,13.4152185 C7.70622857,13.4152185 6.87462857,14.2323178 6.8604,15.2370411 C6.85273714,15.7317716 7.03877143,16.1992422 7.38456,16.5532291 C7.72925143,16.9077971 8.19210857,17.1063251 8.68779429,17.1134178 L8.71513714,17.1139647 C9.72294857,17.1139647 10.5556629,16.2957716 10.5698914,15.2904844 C10.5840686,14.2715927 9.76448571,13.4293869 8.74138286,13.4152185 Z" id="Shape" fill="#222051"></path>
                            </g>
                            <path d="M41.5662686,40.8663462 C41.5662686,39.1137076 42.9914057,37.6929062 44.7493714,37.6929062 L51.11556,37.6929062 C52.8735257,37.6929062 54.2986457,39.1136905 54.2986457,40.8663462 L54.2986457,47.2132433 C54.2986457,48.9658818 52.8735429,50.3866833 51.11556,50.3866833 L44.7493714,50.3866833 C42.9914057,50.3866833 41.5662686,48.9658989 41.5662686,47.2132433 L41.5662686,40.8663462 Z" id="Shape" fill="#893EF7"></path>
                            <ellipse id="Oval" fill="#FFFFFF" cx="9.18373714" cy="26.7362833" rx="5.81718857" ry="5.79956073"></ellipse>
                            <path d="M9.18373714,34.2030964 C9.17274857,34.2030964 9.08634857,34.2023102 9.07534286,34.2023102 C7.07552571,34.1733411 5.20609714,33.3698804 3.81265714,31.9391833 C2.41765714,30.5092382 1.66673143,28.6227607 1.69501714,26.6282345 C1.75157143,22.5717756 5.11026857,19.2694873 9.18217714,19.2694873 C13.4190343,19.3289978 16.7305886,22.7260553 16.6724743,26.8427767 C16.6127657,30.90156 13.2540686,34.2030964 9.18373714,34.2030964 Z M9.21,24.8871836 C8.17484571,24.8871836 7.34324571,25.7042829 7.32901714,26.7090404 C7.32135429,27.2037538 7.50735429,27.6712073 7.85314286,28.0252284 C8.19783429,28.3797622 8.66069143,28.5783244 9.15637714,28.5854171 L9.18373714,28.585964 C10.1915314,28.585964 11.0242286,27.7677709 11.0384571,26.7624665 C11.0526857,25.7435407 10.2331029,24.9013691 9.21,24.8871836 Z" id="Shape" fill="#222051"></path>
                        </g>
                        <g id="Group" transform="translate(80.571429, 13.672727)">
                            <path d="M3.87565714,20.4920171 C3.24289714,20.4920171 2.78727429,19.98064 2.78727429,19.3498316 L2.78727429,3.81616073 C2.78727429,3.18535236 3.24289714,2.67397527 3.87565714,2.67397527 L26.7805371,2.67397527 C26.78352,2.67397527 26.7862457,2.67481273 26.7891771,2.67482982 C26.80068,2.67479564 26.8119943,2.67397527 26.8235486,2.67397527 C31.7588229,2.67397527 35.7596229,6.66266873 35.7596229,11.5829876 C35.7596229,16.5033065 31.7588229,20.4920171 26.8235486,20.4920171 C26.8119943,20.4920171 26.80068,20.4911796 26.7891771,20.4911284 C26.7862457,20.4911796 26.78352,20.4920171 26.7805371,20.4920171 L3.87565714,20.4920171 Z" id="Shape" fill="#FFFFFF"></path>
                            <path d="M26.8237029,22.7263287 C26.8094743,22.7257818 26.7952457,22.725252 26.7810171,22.7263287 L3.87536571,22.7263287 C2.00857714,22.7263287 0.54672,21.2432309 0.54672,19.3499171 L0.54672,3.81629745 C0.54672,1.92301782 2.00857714,0.439885818 3.87536571,0.439885818 L26.7810171,0.439885818 C26.7985371,0.439885818 26.8160229,0.439885818 26.8335429,0.440432727 C33.0116229,0.463334545 38.0002629,5.45321345 38.0002629,11.5831073 C38.0002457,17.7277335 32.9864571,22.7263287 26.8237029,22.7263287 Z M5.02865143,18.2579105 L26.7197486,18.2579105 C26.7624343,18.2568338 26.8018286,18.2562869 26.8554,18.2579105 C30.5320457,18.2410076 33.5182457,15.2529698 33.5182457,11.5831244 C33.5182457,7.90235782 30.5145771,4.90832109 26.8237029,4.90832109 C26.8105714,4.90832109 26.7963429,4.90832109 26.7810171,4.90777418 L26.7810171,4.90832109 L5.02866857,4.90832109 L5.02865143,18.2579105 Z" id="Shape" fill="#222051"></path>
                        </g>
                        <ellipse id="Oval" fill="#222051" cx="107.301943" cy="25.2557149" rx="2.35073143" ry="2.343608"></ellipse>
                        <g id="Group" transform="translate(30.857143, 13.672727)">
                            <path d="M34.5986914,2.67395818 C35.2314,2.67395818 35.68704,3.18533527 35.68704,3.81614364 L35.68704,19.3498145 C35.68704,19.9806229 35.2314,20.492 34.5986914,20.492 L11.69376,20.492 C11.6908114,20.492 11.6881029,20.4911625 11.6851543,20.4911113 C11.6736514,20.4911625 11.66232,20.492 11.6508171,20.492 C6.71554286,20.492 2.71472571,16.5032895 2.71472571,11.5829705 C2.71472571,6.66265164 6.71556,2.67395818 11.6508171,2.67395818 C11.66232,2.67395818 11.6736514,2.67477855 11.6851543,2.67481273 C11.6881029,2.67477855 11.6908114,2.67395818 11.69376,2.67395818 L34.5986914,2.67395818 Z" id="Shape" fill="#FFFFFF"></path>
                            <path d="M34.5985886,22.7263287 L11.6940343,22.7263287 C11.6694,22.7263287 11.6442343,22.7257818 11.6196171,22.725252 C5.45194286,22.6914291 0.473725714,17.7059084 0.473725714,11.5831244 C0.473725714,5.43851527 5.48751429,0.439902909 11.6508,0.439902909 L11.6508,0.440449818 C11.6655771,0.439902909 11.6798057,0.439902909 11.6940343,0.439902909 L34.5985886,0.439902909 C36.4659257,0.439902909 37.9278171,1.92301782 37.9278171,3.81631455 L37.9278171,19.3499342 C37.9278171,21.2432309 36.4659257,22.7263287 34.5985886,22.7263287 Z M11.6841771,4.908868 C7.95829714,4.908868 4.95570857,7.90288764 4.95570857,11.5831244 C4.95570857,15.2638909 7.95884571,18.2579105 11.6508,18.2579105 C11.6650286,18.2579105 11.6792571,18.2579105 11.6940343,18.2584575 L11.6940343,18.2579105 L33.4458171,18.2579105 L33.4458171,4.908304 L11.7339771,4.908304 C11.7175543,4.90885091 11.7011486,4.90885091 11.6852743,4.90885091 L11.6841771,4.90885091 L11.6841771,4.908868 Z" id="Shape" fill="#222051"></path>
                        </g>
                        <g id="Group" transform="translate(48.000000, 8.545455)">
                            <rect id="Rectangle-path" fill="#FFFFFF" x="2.53849714" y="3.40703855" width="48.5102571" height="27.5755495"></rect>
                            <path d="M51.0482914,33.2165749 L2.53854857,33.2165749 C1.30097143,33.2165749 0.297548571,32.2161927 0.297548571,30.9823658 L0.297548571,3.40715818 C0.297548571,2.17333127 1.30097143,1.17294909 2.53854857,1.17294909 L51.0482914,1.17294909 C52.2858686,1.17294909 53.2892914,2.17333127 53.2892914,3.40715818 L53.2892914,30.9823658 C53.2892914,32.2161927 52.2858686,33.2165749 51.0482914,33.2165749 Z M4.77954857,28.7481738 L48.8072914,28.7481738 L48.8072914,5.64136727 L4.77954857,5.64136727 L4.77954857,28.7481738 Z" id="Shape" fill="#222051"></path>
                        </g>
                        <g id="Group" transform="translate(60.000000, 17.090909)" fill="#893EF7">
                            <path d="M12.1738114,17.2561098 C11.9659029,17.2561098 11.7547029,17.2173818 11.5500686,17.1355676 C10.6878171,16.7919207 10.2687257,15.817192 10.6134,14.9575364 L15.6348514,2.43812073 C15.9795429,1.579012 16.95888,1.16228436 17.8189543,1.50483745 C18.6812057,1.84848436 19.1002971,2.82321309 18.7556229,3.68286873 L13.7341714,16.2023015 C13.47156,16.857396 12.8401886,17.2561098 12.1738114,17.2561098 Z" id="Shape"></path>
                            <g transform="translate(20.571429, 1.709091)" id="Shape">
                                <path d="M2.50536,14.0252102 C2.07533143,14.0252102 1.64528571,13.8615647 1.317,13.5342909 C0.66048,12.8802731 0.66048,11.818808 1.317,11.1648073 L5.95218857,6.54366473 C6.60876,5.8891 7.67233714,5.8891 8.32889143,6.54366473 C8.98546286,7.19766545 8.98546286,8.25913055 8.32889143,8.91314836 L3.69370286,13.5342909 C3.36543429,13.8615647 2.93538857,14.0252102 2.50536,14.0252102 Z"></path>
                                <path d="M7.14053143,9.40405055 C6.71050286,9.40405055 6.28045714,9.24042218 5.95217143,8.91314836 L1.31698286,4.29198873 C0.660462857,3.637988 0.660462857,2.57652291 1.31698286,1.92250509 C1.97355429,1.26795745 3.03713143,1.26795745 3.69368571,1.92250509 L8.32887429,6.54366473 C8.98544571,7.19766545 8.98544571,8.25913055 8.32887429,8.91314836 C8.00060571,9.24042218 7.57057714,9.40405055 7.14053143,9.40405055 Z"></path>
                            </g>
                            <g transform="translate(0.000000, 1.709091)" id="Shape">
                                <path d="M1.79496,9.40405055 C1.36494857,9.40405055 0.93492,9.24042218 0.606634286,8.91314836 C-0.0499028571,8.25913055 -0.0499028571,7.19766545 0.606634286,6.54366473 L5.24182286,1.92250509 C5.89836,1.26795745 6.96197143,1.26795745 7.61850857,1.92250509 C8.27504571,2.57652291 8.27504571,3.637988 7.61850857,4.29198873 L2.98332,8.91314836 C2.65503429,9.24042218 2.22498857,9.40405055 1.79496,9.40405055 Z"></path>
                                <path d="M6.43016571,14.0252102 C6.00013714,14.0252102 5.57007429,13.8615647 5.24180571,13.5342909 L0.606617143,8.91314836 C-0.04992,8.25913055 -0.04992,7.19766545 0.606617143,6.54366473 C1.26315429,5.8891 2.32676571,5.8891 2.98330286,6.54366473 L7.61849143,11.1648073 C8.27502857,11.818808 8.27502857,12.8802731 7.61849143,13.5342909 C7.29024,13.8615647 6.86021143,14.0252102 6.43016571,14.0252102 Z"></path>
                            </g>
                        </g>
                        <ellipse id="Oval" fill="#222051" cx="42.6009771" cy="25.2557149" rx="2.35073143" ry="2.343608"></ellipse>
                        <path d="M99.0482914,5.78006 L76.1378914,5.78006 C74.9003143,5.78006 73.8968914,4.77967782 73.8968914,3.54585091 C73.8968914,2.312024 74.9003143,1.31165891 76.1378914,1.31165891 L99.0482914,1.31165891 C100.285869,1.31165891 101.289291,2.312024 101.289291,3.54585091 C101.289291,4.77967782 100.285869,5.78006 99.0482914,5.78006 Z" id="Shape" fill="#222051"></path>
                    </g>
                </g>
            </g>
        </g>
    </g>
</svg>