<?xml version="1.0" encoding="UTF-8"?>
<svg width="130px" height="127px" viewBox="0 0 130 127" version="1.1" xmlns="http://www.w3.org/2000/svg" xmlns:xlink="http://www.w3.org/1999/xlink">
    <!-- Generator: Sketch 51.2 (57519) - http://www.bohemiancoding.com/sketch -->
    <title>Target</title>
    <desc>Created with Sketch.</desc>
    <defs></defs>
    <g id="Page-1" stroke="none" stroke-width="1" fill="none" fill-rule="evenodd">
        <g id="iPhone-8.2" transform="translate(-124.000000, -138.000000)" fill-rule="nonzero">
            <g id="icon" transform="translate(42.000000, 54.000000)">
                <g id="Target" transform="translate(82.000000, 84.000000)">
                    <g id="Layer_5">
                        <g id="Group">
                            <ellipse id="Oval" fill="#893EF7" cx="47.8368694" cy="46.8993008" rx="30.5869571" ry="30.5036273"></ellipse>
                            <path d="M38.391998,46.8699585 C33.4189673,47.0710419 29.2092755,43.2007698 29.0076694,38.2421871 C28.8059837,33.2836044 32.6877837,29.0861221 37.6607347,28.8850123 C42.6320673,28.6839819 46.8418388,32.554254 47.0434449,37.5128631 C47.2450245,42.4714988 43.3633306,46.6689546 38.391998,46.8699585 Z M37.9417469,35.796855 C36.7911408,35.8433952 35.8917,36.814469 35.9383408,37.961914 C35.9849816,39.1094119 36.9603531,40.004656 38.1109592,39.9581158 C39.2615653,39.9116021 40.1592816,38.9406077 40.1126673,37.7931098 C40.0660265,36.6456648 39.0924061,35.7503148 37.9417469,35.796855 Z" id="Shape" fill="#222051"></path>
                            <path d="M36.7309959,20.9040942 C34.8173163,20.9814848 32.6918163,19.5174923 32.6141612,17.6089733 L32.0521102,3.78528792 C31.9745347,1.87676896 33.9742265,0.245956667 35.8879857,0.168566042 C37.8016653,0.091201875 39.9271653,1.55519437 40.0048204,3.46371333 L40.5667918,17.2873988 C40.6444204,19.1959177 38.6447551,20.82673 36.7309959,20.9040942 Z" id="Shape" fill="#222051"></path>
                            <path d="M38.9089469,74.470895 C36.9951878,74.5482856 34.8696878,73.0843196 34.7921122,71.1757477 L34.2300612,57.3520623 C34.1524857,55.4435433 36.1521776,53.8127575 38.0658571,53.7353669 C39.9796163,53.6579763 42.1051163,55.1219952 42.1826918,57.0305142 L42.7447429,70.8541996 C42.822398,72.7627185 40.8226265,74.3935044 38.9089469,74.470895 Z" id="Shape" fill="#222051"></path>
                            <path d="M53.8588939,36.6541315 C53.7813184,34.7456125 55.2493102,32.6259031 57.1630694,32.5485125 L71.0245184,31.9879927 C72.938198,31.9106285 74.5734653,33.904846 74.6510939,35.813365 C74.7286694,37.7219104 73.2606776,39.8415933 71.3469184,39.918984 L57.4854694,40.4794773 C55.5717898,40.5568679 53.936549,38.5626504 53.8588939,36.6541315 Z" id="Shape" fill="#222051"></path>
                            <path d="M0.145812245,38.8261225 C0.0681571429,36.9176035 1.53614898,34.7978942 3.44990816,34.7205035 L17.3113571,34.1599838 C19.2251163,34.0825931 20.8603837,36.0768106 20.9379327,37.985356 C21.0155878,39.893875 19.5475163,42.0135844 17.6338367,42.090975 L3.77238776,42.6514948 C1.85862857,42.7289119 0.223387755,40.7346415 0.145812245,38.8261225 Z" id="Shape" fill="#222051"></path>
                            <path d="M39.6531041,67.0916658 C23.6359633,67.7393658 10.0769898,55.2711144 9.42749388,39.29761 C8.77807755,23.3240792 21.2802837,9.80117208 37.2975041,9.15349854 C53.3146449,8.50579854 66.873698,20.9748967 67.5231143,36.948401 C68.1725306,52.9219054 55.6702449,66.4439923 39.6531041,67.0916658 Z M37.5784367,16.0653677 C25.3837204,16.5584717 15.8637143,26.8549702 16.3582449,39.0173633 C16.8526959,51.17973 27.177349,60.6729271 39.3720653,60.1798231 C51.5668612,59.6867192 61.0868673,49.3910408 60.5923367,37.2286742 C60.0978857,25.066281 49.7732327,15.5722373 37.5784367,16.0653677 Z" id="Shape" fill="#222051"></path>
                        </g>
                        <g id="Group" transform="translate(74.285714, 31.750000)">
                            <g transform="translate(7.959184, 52.916667)" fill="#893EF7" id="Shape">
                                <path d="M40.5709837,16.3487629 C36.5404531,16.5117462 33.1282714,13.3748992 32.9648959,9.35537562 C32.8014408,5.33582562 35.9477327,1.93294 39.9782367,1.76995667 C44.0087408,1.60697333 47.420949,4.74466708 47.5843245,8.76419063 C47.7478061,12.7837406 44.6015143,16.1857796 40.5709837,16.3487629 Z M40.1889959,6.95383208 C39.0248061,7.00090146 38.1157347,7.98419896 38.1629327,9.14519062 C38.2101306,10.3061294 39.1960347,11.2119569 40.360251,11.1648875 C41.5243612,11.1178181 42.4335122,10.1353673 42.3863143,8.97437562 C42.3391163,7.81343688 41.3531061,6.90676271 40.1889959,6.95383208 Z"></path>
                                <path d="M10.153902,32.2010087 C9.76307959,32.2168044 9.36183061,32.1442821 8.98032041,31.9729379 C7.67159184,31.3835785 7.08882041,29.8470637 7.6797898,28.5411069 C7.89742041,28.0573692 8.11757143,27.5523854 8.33358367,27.0306535 C8.88146735,25.7061494 10.3996551,25.072631 11.7304571,25.6222235 C13.0577041,26.1685881 13.6905388,27.6853121 13.1427347,29.0098163 C12.9051,29.5848088 12.6633531,30.1413598 12.420598,30.6751831 C12.0023429,31.6005898 11.1065367,32.1624854 10.153902,32.2010087 Z M13.4268245,22.3666844 C13.215349,22.3752304 12.9993367,22.3577679 12.7839612,22.3123919 C11.3771224,22.0168787 10.4787959,20.641019 10.7743204,19.2388067 C10.8852449,18.716281 10.9825592,18.1908979 11.0662898,17.6660704 C11.2917735,16.2507083 12.6238224,15.2891596 14.0446694,15.511436 C15.4622796,15.7363848 16.4298245,17.0663658 16.2043408,18.4808813 C16.1071061,19.0907723 15.9929449,19.7013248 15.8650939,20.3090992 C15.6149898,21.4947765 14.5876184,22.3197473 13.4268245,22.3666844 Z M13.6827653,12.0712442 C12.4610837,12.1206154 11.3363184,11.300751 11.0472673,10.0692215 C10.9403224,9.60704729 10.8084122,9.15603854 10.6467347,8.72225417 C10.1480653,7.37843542 10.8365082,5.88682042 12.1840245,5.38948313 C13.5265,4.89153729 15.0272041,5.57789292 15.5259265,6.92261125 C15.7544082,7.53961958 15.9524592,8.20091917 16.1142163,8.88735417 C16.4405163,10.2829783 15.5718245,11.6779146 14.1732367,12.00404 C14.0087204,12.0428808 13.8452653,12.0646825 13.6827653,12.0712442 Z"></path>
                                <path d="M9.6339551,41.5056108 C5.60342449,41.6685942 2.19124286,38.5309004 2.02786735,34.5113769 C1.86441224,30.4918269 5.01070408,27.0889413 9.04120816,26.9259579 C13.0717122,26.7629746 16.4822224,29.9007477 16.645598,33.9202713 C16.8090531,37.9398212 13.6644592,41.3426275 9.6339551,41.5056108 Z M9.25194082,32.1098333 C8.08783061,32.1569027 7.17867959,33.1402002 7.22587755,34.3011919 C7.27307551,35.4621835 8.25905918,36.3688048 9.42319592,36.3217354 C10.5873327,36.274666 11.4947592,35.2914479 11.4475612,34.1304562 C11.4003633,32.9695175 10.4160776,32.062764 9.25194082,32.1098333 Z"></path>
                            </g>
                            <g fill="#222051" id="Shape">
                                <g transform="translate(13.265306, 0.000000)">
                                    <path d="M4.60836735,16.1166704 C3.17351224,16.1746935 1.96217755,15.0616179 1.90396939,13.6298252 L1.52190204,4.23404771 C1.46369388,2.80222854 2.58068571,1.59504063 4.01554082,1.53699104 C5.45047551,1.47896792 6.6618102,2.59204354 6.72001837,4.02383625 L7.10200612,13.4196402 C7.16021429,14.8514329 6.04322245,16.0586473 4.60836735,16.1166704 Z"></path>
                                    <path d="M14.3646551,6.13007833 L4.21900408,6.54034125 C2.78414898,6.59836437 1.57281429,5.48528875 1.51460612,4.05346958 C1.45639796,2.62167687 2.5733898,1.4144625 4.0082449,1.35643937 L14.1538959,0.946176458 C15.588751,0.888153333 16.8000857,2.0012025 16.8582939,3.43302167 C16.916502,4.86484083 15.7995102,6.07202875 14.3646551,6.13007833 Z"></path>
                                </g>
                                <path d="M39.7977755,50.9525587 C39.7622245,50.954014 39.728398,50.9553898 39.6928469,50.9567921 C38.2579918,51.0148417 37.1159816,50.4384998 37.1152388,49.005199 C37.1056878,32.2612808 29.516102,17.1288869 15.7207939,5.81112312 C14.6109388,4.90100937 14.4578306,3.42664521 15.3704571,2.32066042 C16.284702,1.21462271 17.9237633,1.13403062 19.0354224,2.04575833 C34.0544286,14.3653669 42.3056612,30.6391998 42.3166714,48.9617544 C42.3175735,50.3587279 41.1852735,50.8964935 39.7977755,50.9525587 Z"></path>
                                <path d="M40.2303041,61.6333117 C36.1997735,61.796295 32.7875918,58.6585748 32.6242163,54.6390248 C32.4607612,50.6194748 35.6070531,47.2165892 39.6375571,47.0536058 C43.6680612,46.8906225 47.0802694,50.0283163 47.2436449,54.0478398 C47.4071265,58.0673898 44.2608082,61.4703283 40.2303041,61.6333117 Z M39.8482898,52.2374813 C38.6841796,52.2845506 37.7750286,53.2678481 37.8222265,54.4288398 C37.8694245,55.5898315 38.8554082,56.4964527 40.0195449,56.4493833 C41.1837347,56.402314 42.0928061,55.4190165 42.0456082,54.2580512 C41.9984102,53.097086 41.0124265,52.1904119 39.8482898,52.2374813 Z"></path>
                                <g transform="translate(2.653061, 31.750000)">
                                    <path d="M3.68616327,16.6086896 C3.0212,16.6355713 2.34594286,16.409379 1.8177449,15.9236569 C0.761402041,14.9530594 0.694597959,13.311161 1.66869592,12.2584633 L12.0670245,1.01200479 C13.0411224,-0.041513125 14.6857551,-0.108002917 15.7421776,0.863388333 C16.7985204,1.83398583 16.8653245,3.47588417 15.8911469,4.52858188 L5.49289796,15.7750404 C5.00590204,16.3017729 4.35123265,16.5818079 3.68616327,16.6086896 Z"></path>
                                    <path d="M14.5239184,16.1704338 C13.8589551,16.1973154 13.183698,15.9710702 12.6555,15.485401 L1.37829184,5.11542771 C0.32194898,4.14483021 0.25522449,2.50293187 1.22932245,1.45028708 C2.20342041,0.396742708 3.84805306,0.330252917 4.90447551,1.30164417 L16.1816041,11.6716175 C17.2380265,12.642215 17.304751,14.2841133 16.3306531,15.336811 C15.8436306,15.8635435 15.1888816,16.1435521 14.5239184,16.1704338 Z"></path>
                                </g>
                                <path d="M9.81319592,77.4846579 C9.42237347,77.50048 9.02112449,77.4279842 8.63953469,77.2565871 C7.33088571,76.6672277 6.74811429,75.1307129 7.33908367,73.8247825 C7.55671429,73.3409919 7.77686531,72.8360346 7.99287755,72.3143027 C8.54076122,70.9906717 10.0606469,70.3562008 11.389751,70.9058727 C12.716998,71.4522373 13.3498327,72.9690142 12.8020286,74.2934654 C12.5643939,74.8684844 12.3226469,75.4250619 12.0798918,75.9588323 C11.6616367,76.884239 10.7658306,77.4461346 9.81319592,77.4846579 Z M13.0844204,67.6504129 C12.8729449,67.658959 12.6569327,67.6414965 12.4415571,67.5961204 C11.0347184,67.3006073 10.1363918,65.9247475 10.4319163,64.5225881 C10.5428408,64.0000096 10.6401551,63.4746529 10.7238857,62.9498519 C10.9510673,61.5335108 12.2813388,60.570401 13.7022653,60.795191 C15.1198755,61.0201398 16.0874204,62.3501208 15.8619367,63.7646362 C15.764702,64.3745273 15.6505408,64.9850798 15.5226898,65.5928542 C15.2726653,66.778505 14.2452143,67.6034758 13.0844204,67.6504129 Z M13.3420592,57.3548933 C12.1203776,57.4043175 10.9956122,56.5844002 10.7065612,55.3529235 C10.5996163,54.8907494 10.4677061,54.4397142 10.3060286,54.0059563 C9.80735918,52.6620846 10.495802,51.170496 11.8433184,50.6731852 C13.1840163,50.1744192 14.686498,50.861595 15.1852204,52.2062869 C15.413702,52.8232952 15.6117531,53.4846213 15.7735102,54.1710827 C16.0998102,55.5667069 15.2311184,56.9616167 13.8325306,57.2877685 C13.6680143,57.32653 13.5045592,57.3483581 13.3420592,57.3548933 Z"></path>
                                <path d="M9.29155102,86.7893658 C5.26102041,86.9523492 1.84883878,83.8146554 1.68546327,79.7951319 C1.52200816,75.7755819 4.6683,72.3735429 8.69880408,72.2105596 C12.7293082,72.0475763 16.1415163,75.1844233 16.3048918,79.2039469 C16.4683735,83.2234704 13.3220551,86.6263825 9.29155102,86.7893658 Z M8.90956327,77.3944085 C7.74545306,77.4414779 6.83630204,78.4239287 6.8835,79.5849204 C6.93069796,80.7459121 7.91668163,81.6525333 9.08081837,81.605464 C10.2449551,81.5583946 11.1540796,80.5750971 11.1068816,79.4141319 C11.0596571,78.2531667 10.0737531,77.3473392 8.90956327,77.3944085 Z"></path>
                            </g>
                        </g>
                    </g>
                </g>
            </g>
        </g>
    </g>
</svg>